<mxfile host="app.diagrams.net" agent="Mozilla/5.0 (Windows NT 10.0; Win64; x64) AppleWebKit/537.36 (KHTML, like Gecko) Chrome/128.0.0.0 Safari/537.36 OPR/114.0.0.0" version="24.8.4">
  <diagram name="Page-1" id="sGOjktrTsm44i3EqxhX0">
    <mxGraphModel dx="2033" dy="1123" grid="1" gridSize="10" guides="1" tooltips="1" connect="1" arrows="1" fold="1" page="1" pageScale="1" pageWidth="850" pageHeight="1100" math="0" shadow="0">
      <root>
        <mxCell id="0" />
        <mxCell id="1" parent="0" />
        <mxCell id="hrOeuDzzDcNneY_T--qx-36" value="" style="rounded=0;whiteSpace=wrap;html=1;" parent="1" vertex="1">
          <mxGeometry x="40" y="10" width="710" height="660" as="geometry" />
        </mxCell>
        <mxCell id="hrOeuDzzDcNneY_T--qx-7" value="&lt;p style=&quot;line-height: 120%;&quot;&gt;&lt;span style=&quot;white-space: pre;&quot;&gt;&#x9;&lt;/span&gt;VULTR&lt;/p&gt;&lt;p style=&quot;line-height: 120%;&quot;&gt;&lt;br&gt;&lt;/p&gt;&lt;p style=&quot;line-height: 120%;&quot;&gt;&lt;br&gt;&lt;/p&gt;&lt;p style=&quot;line-height: 120%;&quot;&gt;&lt;br&gt;&lt;/p&gt;&lt;p style=&quot;line-height: 120%;&quot;&gt;&lt;br&gt;&lt;/p&gt;&lt;p style=&quot;line-height: 120%;&quot;&gt;&lt;br&gt;&lt;/p&gt;&lt;p style=&quot;line-height: 120%;&quot;&gt;&lt;br&gt;&lt;/p&gt;&lt;p style=&quot;line-height: 120%;&quot;&gt;&lt;br&gt;&lt;/p&gt;&lt;p style=&quot;line-height: 120%;&quot;&gt;&lt;br&gt;&lt;/p&gt;&lt;p style=&quot;line-height: 120%;&quot;&gt;&lt;br&gt;&lt;/p&gt;&lt;p style=&quot;line-height: 120%;&quot;&gt;&lt;br&gt;&lt;/p&gt;&lt;p style=&quot;line-height: 120%;&quot;&gt;&lt;br&gt;&lt;/p&gt;&lt;p style=&quot;line-height: 120%;&quot;&gt;&lt;br&gt;&lt;/p&gt;" style="rounded=1;whiteSpace=wrap;html=1;align=left;" parent="1" vertex="1">
          <mxGeometry x="140" y="180" width="550" height="480" as="geometry" />
        </mxCell>
        <mxCell id="hrOeuDzzDcNneY_T--qx-9" value="VPC" style="sketch=0;outlineConnect=0;gradientColor=none;html=1;whiteSpace=wrap;fontSize=12;fontStyle=0;shape=mxgraph.aws4.group;grIcon=mxgraph.aws4.group_vpc;strokeColor=#879196;fillColor=none;verticalAlign=top;align=left;spacingLeft=30;fontColor=#879196;dashed=0;" parent="1" vertex="1">
          <mxGeometry x="160" y="247" width="510" height="283" as="geometry" />
        </mxCell>
        <mxCell id="hrOeuDzzDcNneY_T--qx-17" style="edgeStyle=orthogonalEdgeStyle;rounded=0;orthogonalLoop=1;jettySize=auto;html=1;startArrow=classic;startFill=1;fillColor=#fa6800;strokeColor=#C73500;dashed=1;dashPattern=12 12;" parent="1" source="hrOeuDzzDcNneY_T--qx-1" target="hrOeuDzzDcNneY_T--qx-3" edge="1">
          <mxGeometry relative="1" as="geometry" />
        </mxCell>
        <mxCell id="hrOeuDzzDcNneY_T--qx-18" value="Alerts/Tickets" style="edgeLabel;html=1;align=center;verticalAlign=middle;resizable=0;points=[];" parent="hrOeuDzzDcNneY_T--qx-17" vertex="1" connectable="0">
          <mxGeometry x="0.1834" y="1" relative="1" as="geometry">
            <mxPoint y="1" as="offset" />
          </mxGeometry>
        </mxCell>
        <mxCell id="hrOeuDzzDcNneY_T--qx-1" value="Elastic &amp;amp; Kibana" style="outlineConnect=0;dashed=0;verticalLabelPosition=bottom;verticalAlign=top;align=center;html=1;shape=mxgraph.aws3.traditional_server;fillColor=#dae8fc;strokeColor=#6c8ebf;gradientColor=#7ea6e0;" parent="1" vertex="1">
          <mxGeometry x="379" y="267" width="46.5" height="63" as="geometry" />
        </mxCell>
        <mxCell id="hrOeuDzzDcNneY_T--qx-2" value="C2 Server&lt;div&gt;Mythic&lt;/div&gt;" style="outlineConnect=0;dashed=0;verticalLabelPosition=bottom;verticalAlign=top;align=center;html=1;shape=mxgraph.aws3.traditional_server;fillColor=#FF6666;strokeColor=#C73500;fontColor=#000000;" parent="1" vertex="1">
          <mxGeometry x="683.5" y="110" width="46.5" height="63" as="geometry" />
        </mxCell>
        <mxCell id="hrOeuDzzDcNneY_T--qx-3" value="osTicket Server" style="outlineConnect=0;dashed=0;verticalLabelPosition=bottom;verticalAlign=top;align=center;html=1;shape=mxgraph.aws3.traditional_server;fillColor=#d5e8d4;strokeColor=#82b366;gradientColor=#97d077;" parent="1" vertex="1">
          <mxGeometry x="570" y="267" width="46.5" height="63" as="geometry" />
        </mxCell>
        <mxCell id="hrOeuDzzDcNneY_T--qx-4" value="Fleet Server" style="outlineConnect=0;dashed=0;verticalLabelPosition=bottom;verticalAlign=top;align=center;html=1;shape=mxgraph.aws3.traditional_server;fillColor=#f5f5f5;gradientColor=#b3b3b3;strokeColor=#666666;" parent="1" vertex="1">
          <mxGeometry x="371.75" y="440" width="46.5" height="63" as="geometry" />
        </mxCell>
        <mxCell id="hrOeuDzzDcNneY_T--qx-11" style="edgeStyle=orthogonalEdgeStyle;rounded=0;orthogonalLoop=1;jettySize=auto;html=1;entryX=1;entryY=0.5;entryDx=0;entryDy=0;entryPerimeter=0;" parent="1" source="hrOeuDzzDcNneY_T--qx-5" target="hrOeuDzzDcNneY_T--qx-4" edge="1">
          <mxGeometry relative="1" as="geometry" />
        </mxCell>
        <mxCell id="hrOeuDzzDcNneY_T--qx-13" value="Managed" style="edgeLabel;html=1;align=center;verticalAlign=middle;resizable=0;points=[];" parent="hrOeuDzzDcNneY_T--qx-11" vertex="1" connectable="0">
          <mxGeometry x="0.1488" relative="1" as="geometry">
            <mxPoint as="offset" />
          </mxGeometry>
        </mxCell>
        <mxCell id="hrOeuDzzDcNneY_T--qx-5" value="Ubuntu Server&lt;div&gt;SSH Enabled&lt;/div&gt;" style="outlineConnect=0;dashed=0;verticalLabelPosition=bottom;verticalAlign=top;align=center;html=1;shape=mxgraph.aws3.traditional_server;fillColor=#e6d0de;gradientColor=#d5739d;strokeColor=#996185;" parent="1" vertex="1">
          <mxGeometry x="570" y="543" width="46.5" height="63" as="geometry" />
        </mxCell>
        <mxCell id="hrOeuDzzDcNneY_T--qx-10" style="edgeStyle=orthogonalEdgeStyle;rounded=0;orthogonalLoop=1;jettySize=auto;html=1;entryX=0;entryY=0.5;entryDx=0;entryDy=0;entryPerimeter=0;" parent="1" source="hrOeuDzzDcNneY_T--qx-6" target="hrOeuDzzDcNneY_T--qx-4" edge="1">
          <mxGeometry relative="1" as="geometry" />
        </mxCell>
        <mxCell id="hrOeuDzzDcNneY_T--qx-12" value="Managed" style="edgeLabel;html=1;align=center;verticalAlign=middle;resizable=0;points=[];" parent="hrOeuDzzDcNneY_T--qx-10" vertex="1" connectable="0">
          <mxGeometry x="-0.0105" y="-1" relative="1" as="geometry">
            <mxPoint y="1" as="offset" />
          </mxGeometry>
        </mxCell>
        <mxCell id="hrOeuDzzDcNneY_T--qx-6" value="Windows Server&amp;nbsp;&lt;div&gt;RDP Enabled&lt;/div&gt;" style="outlineConnect=0;dashed=0;verticalLabelPosition=bottom;verticalAlign=top;align=center;html=1;shape=mxgraph.aws3.traditional_server;fillColor=#fff2cc;gradientColor=#ffd966;strokeColor=#d6b656;" parent="1" vertex="1">
          <mxGeometry x="190" y="543" width="46.5" height="63" as="geometry" />
        </mxCell>
        <mxCell id="hrOeuDzzDcNneY_T--qx-16" style="edgeStyle=orthogonalEdgeStyle;rounded=0;orthogonalLoop=1;jettySize=auto;html=1;entryX=0.5;entryY=1;entryDx=0;entryDy=0;entryPerimeter=0;startArrow=classic;startFill=1;fillColor=#fa6800;strokeColor=#C73500;dashed=1;dashPattern=12 12;" parent="1" source="hrOeuDzzDcNneY_T--qx-4" target="hrOeuDzzDcNneY_T--qx-1" edge="1">
          <mxGeometry relative="1" as="geometry" />
        </mxCell>
        <mxCell id="hrOeuDzzDcNneY_T--qx-19" value="Manage Agents" style="edgeLabel;html=1;align=center;verticalAlign=middle;resizable=0;points=[];" parent="hrOeuDzzDcNneY_T--qx-16" vertex="1" connectable="0">
          <mxGeometry x="-0.0079" y="-3" relative="1" as="geometry">
            <mxPoint as="offset" />
          </mxGeometry>
        </mxCell>
        <mxCell id="hrOeuDzzDcNneY_T--qx-20" style="rounded=0;orthogonalLoop=1;jettySize=auto;html=1;entryX=0;entryY=0.5;entryDx=0;entryDy=0;entryPerimeter=0;fillColor=#1ba1e2;strokeColor=#006EAF;dashed=1;dashPattern=12 12;" parent="1" source="hrOeuDzzDcNneY_T--qx-6" target="hrOeuDzzDcNneY_T--qx-1" edge="1">
          <mxGeometry relative="1" as="geometry" />
        </mxCell>
        <mxCell id="hrOeuDzzDcNneY_T--qx-22" value="Forward Logs via Agent" style="edgeLabel;html=1;align=center;verticalAlign=middle;resizable=0;points=[];" parent="hrOeuDzzDcNneY_T--qx-20" vertex="1" connectable="0">
          <mxGeometry x="-0.1422" y="-2" relative="1" as="geometry">
            <mxPoint as="offset" />
          </mxGeometry>
        </mxCell>
        <mxCell id="hrOeuDzzDcNneY_T--qx-21" style="rounded=0;orthogonalLoop=1;jettySize=auto;html=1;entryX=1;entryY=0.5;entryDx=0;entryDy=0;entryPerimeter=0;fillColor=#1ba1e2;strokeColor=#006EAF;dashed=1;dashPattern=12 12;" parent="1" source="hrOeuDzzDcNneY_T--qx-5" target="hrOeuDzzDcNneY_T--qx-1" edge="1">
          <mxGeometry relative="1" as="geometry" />
        </mxCell>
        <mxCell id="hrOeuDzzDcNneY_T--qx-23" value="Forward Logs via Agent" style="edgeLabel;html=1;align=center;verticalAlign=middle;resizable=0;points=[];" parent="hrOeuDzzDcNneY_T--qx-21" vertex="1" connectable="0">
          <mxGeometry x="-0.232" y="-2" relative="1" as="geometry">
            <mxPoint as="offset" />
          </mxGeometry>
        </mxCell>
        <mxCell id="hrOeuDzzDcNneY_T--qx-24" value="Private Network 172.31.0.0/24&lt;div&gt;IP Range 172.31.0.1-254&lt;/div&gt;&lt;div&gt;Subnet Mask 255.255.255.0&lt;/div&gt;" style="text;html=1;align=left;verticalAlign=middle;whiteSpace=wrap;rounded=0;" parent="1" vertex="1">
          <mxGeometry x="177" y="297" width="173" height="30" as="geometry" />
        </mxCell>
        <mxCell id="hrOeuDzzDcNneY_T--qx-26" style="rounded=0;orthogonalLoop=1;jettySize=auto;html=1;" parent="1" source="hrOeuDzzDcNneY_T--qx-25" target="hrOeuDzzDcNneY_T--qx-9" edge="1">
          <mxGeometry relative="1" as="geometry" />
        </mxCell>
        <mxCell id="hrOeuDzzDcNneY_T--qx-25" value="" style="outlineConnect=0;dashed=0;verticalLabelPosition=bottom;verticalAlign=top;align=center;html=1;shape=mxgraph.aws3.internet_gateway;fillColor=#F58534;gradientColor=none;" parent="1" vertex="1">
          <mxGeometry x="386.25" y="190" width="32" height="32" as="geometry" />
        </mxCell>
        <mxCell id="hrOeuDzzDcNneY_T--qx-28" style="edgeStyle=orthogonalEdgeStyle;rounded=0;orthogonalLoop=1;jettySize=auto;html=1;" parent="1" source="hrOeuDzzDcNneY_T--qx-27" target="hrOeuDzzDcNneY_T--qx-25" edge="1">
          <mxGeometry relative="1" as="geometry" />
        </mxCell>
        <mxCell id="hrOeuDzzDcNneY_T--qx-27" value="Internet" style="ellipse;shape=cloud;whiteSpace=wrap;html=1;" parent="1" vertex="1">
          <mxGeometry x="342" y="70" width="120" height="80" as="geometry" />
        </mxCell>
        <mxCell id="hrOeuDzzDcNneY_T--qx-31" value="Connect to Elastic/Kibana via Web GUI" style="rounded=0;orthogonalLoop=1;jettySize=auto;html=1;" parent="1" source="hrOeuDzzDcNneY_T--qx-29" target="hrOeuDzzDcNneY_T--qx-27" edge="1">
          <mxGeometry relative="1" as="geometry" />
        </mxCell>
        <mxCell id="hrOeuDzzDcNneY_T--qx-29" value="SOC Analyst Device" style="verticalLabelPosition=bottom;html=1;verticalAlign=top;align=center;strokeColor=none;fillColor=#00BEF2;shape=mxgraph.azure.computer;pointerEvents=1;" parent="1" vertex="1">
          <mxGeometry x="70" y="87.5" width="50" height="45" as="geometry" />
        </mxCell>
        <mxCell id="hrOeuDzzDcNneY_T--qx-30" value="Attack Laptoip&lt;div&gt;Kali Linux&lt;/div&gt;" style="verticalLabelPosition=bottom;html=1;verticalAlign=top;align=center;strokeColor=none;fillColor=#FF6666;shape=mxgraph.azure.computer;pointerEvents=1;" parent="1" vertex="1">
          <mxGeometry x="680" y="20" width="50" height="45" as="geometry" />
        </mxCell>
        <mxCell id="hrOeuDzzDcNneY_T--qx-34" style="rounded=0;orthogonalLoop=1;jettySize=auto;html=1;entryX=0.96;entryY=0.7;entryDx=0;entryDy=0;entryPerimeter=0;" parent="1" source="hrOeuDzzDcNneY_T--qx-2" target="hrOeuDzzDcNneY_T--qx-27" edge="1">
          <mxGeometry relative="1" as="geometry" />
        </mxCell>
        <mxCell id="hrOeuDzzDcNneY_T--qx-35" style="rounded=0;orthogonalLoop=1;jettySize=auto;html=1;entryX=0.88;entryY=0.25;entryDx=0;entryDy=0;entryPerimeter=0;" parent="1" source="hrOeuDzzDcNneY_T--qx-30" target="hrOeuDzzDcNneY_T--qx-27" edge="1">
          <mxGeometry relative="1" as="geometry" />
        </mxCell>
      </root>
    </mxGraphModel>
  </diagram>
</mxfile>
